Coordinates
version=1
nRows=14
nColumns=40
inDegrees=yes

Units are S.I. units (second, meters, Newtons, ...)
Angles are in degrees.

endheader
time	pelvis_tilt	pelvis_list	pelvis_rotation	pelvis_tx	pelvis_ty	pelvis_tz	hip_flexion_r	hip_adduction_r	hip_rotation_r	knee_angle_r	knee_angle_r_beta	ankle_angle_r	subtalar_angle_r	mtp_angle_r	hip_flexion_l	hip_adduction_l	hip_rotation_l	knee_angle_l	knee_angle_l_beta	ankle_angle_l	subtalar_angle_l	mtp_angle_l	lumbar_extension	lumbar_bending	lumbar_rotation	arm_flex_r	arm_add_r	arm_rot_r	elbow_flex_r	pro_sup_r	wrist_flex_r	wrist_dev_r	arm_flex_l	arm_add_l	arm_rot_l	elbow_flex_l	pro_sup_l	wrist_flex_l	wrist_dev_l
      2.46000000	      0.65961432	     -2.73824316	     -0.70359195	     -0.23164198	      0.88087453	     -1.00285581	     -5.72298277	      3.37669609	    -11.76358510	    -22.04408090	     -0.38474179	     15.90592155	      0.80252266	     -5.23035877	     22.18997682	      3.86049950	     10.35036044	    -13.87304576	     -0.24213033	     -6.94348176	     -1.14128484	     -7.81497603	    -11.46248236	      2.39676488	      5.97078206	     15.39275692	    -10.10399083	     22.42822871	     21.61877343	     89.95437384	      0.00000000	      0.00000000	      1.93068258	      8.37676763	     -7.45759009	     21.44478546	     89.95437384	      0.00000000	      0.00000000
      2.47000000	      0.58862978	     -2.39005527	     -0.94126596	     -0.22472740	      0.88085535	     -1.00398060	     -5.89809327	      2.85965518	    -11.35154918	    -22.44076893	     -0.39166530	     15.70134264	      0.62777292	     -5.17816804	     22.05946455	      3.40325607	      9.92378892	    -14.24800071	     -0.24867452	     -7.72135733	     -0.93435073	     -7.57220929	    -11.45601832	      1.93386575	      5.90720009	     15.23238314	     -9.95835269	     22.46658609	     21.42360274	     89.95437384	      0.00000000	      0.00000000	      1.83553744	      8.30988134	     -7.68823636	     20.76014697	     89.95437384	      0.00000000	      0.00000000
      2.48000000	      0.38489310	     -2.29950758	     -1.10007754	     -0.21747093	      0.88074155	     -1.00504296	     -5.93053987	      2.61910537	    -11.16538869	    -22.87172746	     -0.39918695	     15.32729308	      0.56265510	     -5.07824124	     22.11027488	      3.30332012	      9.68366567	    -14.66656873	     -0.25597991	     -7.74049599	     -0.87652710	     -7.41148366	    -11.29031419	      1.74692184	      5.78377396	     14.84332180	     -9.92574690	     22.39639667	     21.63489727	     89.95437384	      0.00000000	      0.00000000	      1.38439681	      8.30921345	     -7.70532455	     20.73409305	     89.95437384	      0.00000000	      0.00000000
      2.49000000	      0.67390728	     -1.33629120	     -1.48624919	     -0.21005647	      0.88192814	     -1.00640191	     -6.44904913	      1.35156229	    -10.73201838	    -23.36079768	     -0.40772284	     14.97752380	     -0.17023971	     -5.07831572	     21.06578209	      2.11915625	      9.51690049	    -14.26833450	     -0.24902942	     -7.52063252	      1.19001522	     -7.08267473	    -11.59017811	      0.60031312	      5.92363274	     14.74839602	     -9.60134764	     22.00384675	     20.88659079	     89.95437384	      0.00000000	      0.00000000	      1.72404700	      8.30770113	     -8.88860518	     19.37096083	     89.95437384	      0.00000000	      0.00000000
      2.50000000	      0.42700279	     -1.01332790	     -1.58010679	     -0.20295231	      0.88230803	     -1.00768897	     -6.32322435	      0.85192031	    -10.64479442	    -23.90059823	     -0.41714413	     14.40392896	     -0.52953677	     -4.99912669	     21.16575350	      1.67209444	      9.15875648	    -14.94685730	     -0.26087187	     -6.62964963	      2.19367052	     -6.83829809	    -11.33114257	      0.18525290	      5.75722969	     14.56245819	     -9.35432813	     21.70160741	     20.36633493	     89.95437384	      0.00000000	      0.00000000	      1.65389324	      8.33174894	     -9.49920272	     18.69060082	     89.95437384	      0.00000000	      0.00000000
      2.51000000	      0.25512025	     -0.71581493	     -1.60835771	     -0.19569144	      0.88303943	     -1.00917233	     -6.26087239	      0.40578312	    -10.33547888	    -24.50517632	     -0.42769601	     13.77291849	     -0.69564093	     -4.86626702	     21.07598975	      1.24735546	      9.03453374	    -15.42535588	     -0.26922325	     -6.16709699	      2.09680317	     -6.77013580	    -11.14779069	     -0.17444232	      5.45621630	     14.37202101	     -9.15756458	     21.72770977	     19.92438442	     89.95437384	      0.00000000	      0.00000000	      1.56072081	      8.29894614	     -9.72029295	     18.01135895	     89.95437384	      0.00000000	      0.00000000
      2.52000000	      0.02951453	     -0.64024444	     -1.66969224	     -0.18820601	      0.88384612	     -1.01042116	     -6.17501624	      0.20402194	    -10.12642768	    -25.02648357	     -0.43679454	     13.29481431	     -0.74224617	     -4.74908109	     21.01593713	      1.10096177	      8.86143189	    -15.89265087	     -0.27737908	     -6.05424581	      2.00853418	     -6.64037474	    -10.90765462	     -0.31715247	      5.29710000	     13.89269609	     -9.14663536	     21.65956547	     20.01800770	     89.95437384	      0.00000000	      0.00000000	      1.18448229	      8.34208295	     -9.73397886	     18.01518860	     89.95437384	      0.00000000	      0.00000000
      2.53000000	     -0.30110662	     -0.08046491	     -1.91954208	     -0.18119220	      0.88472122	     -1.01187431	     -5.52985893	     -0.60961038	     -9.74054826	    -26.23416496	     -0.45787256	     11.93033766	     -2.18956880	     -4.21049414	     20.87381616	      0.42563818	      8.92479151	    -16.01443431	     -0.27950461	     -4.93382355	      2.19535037	     -6.02350173	    -10.49496893	     -0.96374797	      5.30346548	     13.84567751	     -8.76217515	     21.13471349	     18.90037100	     89.95437384	      0.00000000	      0.00000000	      1.40300478	      8.42570325	    -11.31998666	     16.88165866	     89.95437384	      0.00000000	      0.00000000
      2.54000000	     -0.48770194	      0.09663899	     -1.99248661	     -0.17374140	      0.88587215	     -1.01338324	     -5.22802667	     -1.00481884	     -9.55505971	    -27.15756757	     -0.47398897	     10.86413170	     -2.38471106	     -3.99761258	     20.54547354	      0.15184562	      9.02601791	    -16.07808460	     -0.28061551	     -4.40559254	      2.04698893	     -5.91917228	    -10.24502923	     -1.16961708	      5.09360683	     13.62996215	     -8.62261508	     21.21049331	     18.35480169	     89.95437384	      0.00000000	      0.00000000	      1.33028391	      8.39763565	    -11.49875142	     16.29017689	     89.95437384	      0.00000000	      0.00000000
      2.55000000	     -0.70738372	      0.30952136	     -2.10635134	     -0.16631081	      0.88697010	     -1.01500307	     -4.73949284	     -1.48066946	     -9.37468883	    -28.30387348	     -0.49399578	      9.63630377	     -2.74368812	     -3.73224098	     20.14886956	     -0.16318583	      9.24452745	    -15.93674491	     -0.27814867	     -3.97459006	      1.86427370	     -5.76875656	     -9.94564230	     -1.41143335	      4.91845432	     13.37674718	     -8.52205028	     21.26571740	     17.89304552	     89.95437384	      0.00000000	      0.00000000	      1.22999212	      8.39294663	    -11.71908462	     15.80793297	     89.95437384	      0.00000000	      0.00000000
      2.56000000	     -0.90337160	      0.45478935	     -2.24473075	     -0.15895507	      0.88806141	     -1.01666381	     -4.15520921	     -1.92986821	     -9.24630650	    -29.63909244	     -0.51729975	      8.44194292	     -3.17578153	     -3.45703993	     19.67093841	     -0.40966464	      9.54713179	    -15.68305631	     -0.27372097	     -3.60681243	      1.61438576	     -5.62755274	     -9.67936313	     -1.55938041	      4.76532400	     13.16762053	     -8.45231883	     21.36289718	     17.40074161	     89.95437384	      0.00000000	      0.00000000	      1.13552768	      8.38334610	    -12.03289190	     15.38999942	     89.95437384	      0.00000000	      0.00000000
      2.57000000	     -1.26171315	      0.73059118	     -2.38384097	     -0.15163646	      0.88885090	     -1.01835928	     -3.26589218	     -2.47294491	     -8.88474913	    -31.14528266	     -0.54358773	      6.73297111	     -3.57911154	     -2.97549786	     19.35469392	     -0.75644743	     10.24805508	    -15.33733543	     -0.26768700	     -3.49116237	      1.22695653	     -5.31732742	     -9.21755740	     -1.85111519	      4.63296705	     12.82915469	     -8.42674360	     21.44948074	     17.12169874	     89.95437384	      0.00000000	      0.00000000	      1.05378713	      8.45408557	    -12.45094038	     15.06593461	     89.95437384	      0.00000000	      0.00000000
      2.58000000	     -1.41377090	      0.68364931	     -2.49906524	     -0.14427450	      0.88981757	     -1.02008760	     -2.54148270	     -2.72007130	     -8.69070183	    -32.71756069	     -0.57102916	      5.23139076	     -3.80689362	     -2.64378906	     18.78795511	     -0.81963498	     10.56944997	    -15.00250114	     -0.26184304	     -3.10807472	      0.81236550	     -5.20242466	     -8.98383984	     -1.74976493	      4.45474528	     12.63633509	     -8.43480305	     21.56312758	     16.70256959	     89.95437384	      0.00000000	      0.00000000	      0.96951209	      8.43137013	    -12.65639609	     14.76443376	     89.95437384	      0.00000000	      0.00000000
      2.59000000	     -1.69682548	      0.84286558	     -2.77654269	     -0.13712620	      0.89046288	     -1.02152780	     -1.42864392	     -3.20152747	     -8.37347284	    -34.59915738	     -0.60386921	      3.46647696	     -4.42409795	     -2.08523949	     18.36049187	     -1.02575039	     11.33314051	    -14.58445158	     -0.25454670	     -2.95943034	      0.42525190	     -4.97746714	     -8.60924691	     -1.91269347	      4.47336917	     12.37807004	     -8.45964231	     21.76126098	     16.40281796	     89.95437384	      0.00000000	      0.00000000	      0.95536659	      8.47928379	    -12.87661205	     14.53133779	     89.95437384	      0.00000000	      0.00000000
